name analog
datacolumns 19
datarows 73
range 0.4890000000000002 0.5250000000000002
endheader
time	ground_force_vx	ground_force_vy	ground_force_vz	ground_force_px	ground_force_py	ground_force_pz	l_ground_force_vx	l_ground_force_vy	l_ground_force_vz	l_ground_force_px	l_ground_force_py	l_ground_force_pz	ground_torque_x	ground_torque_y	ground_torque_z	l_ground_torque_x	l_ground_torque_y	l_ground_torque_z
0.4890000000000002	-0.0	-0.0	-0.0	-2.5662944316864014	24.23154067993164	-799.4346313476562	-0.0	-0.0	-0.0	-0.0	-0.0	-0.0	-0.0	-0.0	-0.0	-0.0	-0.0	-0.0
0.4895000000000002	-0.0	-0.0	-0.0	-3.217857360839844	25.354461669921875	-800.5768432617188	-0.0	-0.0	-0.0	-0.0	-0.0	-0.0	-0.0	-0.0	-0.0	-0.0	-0.0	-0.0
0.4900000000000002	-0.0	-0.0	-0.0	-3.8088345527648926	26.41734313964844	-802.6702270507812	-0.0	-0.0	-0.0	-0.0	-0.0	-0.0	-0.0	-0.0	-0.0	-0.0	-0.0	-0.0
0.4905000000000002	-0.0	-0.0	-0.0	-3.554609775543213	27.78809928894043	-803.8375244140625	-0.0	-0.0	-0.0	-0.0	-0.0	-0.0	-0.0	-0.0	-0.0	-0.0	-0.0	-0.0
0.4910000000000002	-0.0	-0.0	-0.0	-3.9868431091308594	28.267749786376957	-804.16259765625	-0.0	-0.0	-0.0	-0.0	-0.0	-0.0	-0.0	-0.0	-0.0	-0.0	-0.0	-0.0
0.4915000000000002	-0.0	-0.0	-0.0	-4.14461612701416	28.8504638671875	-806.5009155273438	-0.0	-0.0	-0.0	-0.0	-0.0	-0.0	-0.0	-0.0	-0.0	-0.0	-0.0	-0.0
0.4920000000000002	-0.0	-0.0	-0.0	-4.412092685699463	30.029296875	-808.4088134765625	-0.0	-0.0	-0.0	-0.0	-0.0	-0.0	-0.0	-0.0	-0.0	-0.0	-0.0	-0.0
0.4925000000000002	-0.0	-0.0	-0.0	-4.468454360961914	30.737607955932617	-808.8939208984375	-0.0	-0.0	-0.0	-0.0	-0.0	-0.0	-0.0	-0.0	-0.0	-0.0	-0.0	-0.0
0.4930000000000002	-0.0	-0.0	-0.0	-4.549736022949219	30.63245391845703	-809.6488647460938	-0.0	-0.0	-0.0	-0.0	-0.0	-0.0	-0.0	-0.0	-0.0	-0.0	-0.0	-0.0
0.4935000000000002	-0.0	-0.0	-0.0	-4.17271089553833	31.163782119750977	-808.4624633789062	-0.0	-0.0	-0.0	-0.0	-0.0	-0.0	-0.0	-0.0	-0.0	-0.0	-0.0	-0.0
0.4940000000000002	-0.0	-0.0	-0.0	-3.864917993545532	31.05496406555176	-809.6823120117188	-0.0	-0.0	-0.0	-0.0	-0.0	-0.0	-0.0	-0.0	-0.0	-0.0	-0.0	-0.0
0.4945000000000002	-0.0	-0.0	-0.0	-3.6797592639923096	31.48514175415039	-809.444580078125	-0.0	-0.0	-0.0	-0.0	-0.0	-0.0	-0.0	-0.0	-0.0	-0.0	-0.0	-0.0
0.4950000000000002	-0.0	-0.0	-0.0	-3.588397979736328	32.05769348144531	-809.762451171875	-0.0	-0.0	-0.0	-0.0	-0.0	-0.0	-0.0	-0.0	-0.0	-0.0	-0.0	-0.0
0.4955000000000002	-0.0	-0.0	-0.0	-3.1223678588867188	32.36466217041016	-808.9426879882812	-0.0	-0.0	-0.0	-0.0	-0.0	-0.0	-0.0	-0.0	-0.0	-0.0	-0.0	-0.0
0.4960000000000002	-0.0	-0.0	-0.0	-3.171914577484131	33.780426025390625	-808.2717895507812	-0.0	-0.0	-0.0	-0.0	-0.0	-0.0	-0.0	-0.0	-0.0	-0.0	-0.0	-0.0
0.4965000000000002	-0.0	-0.0	-0.0	-3.082824230194092	34.07720947265625	-808.5472412109375	-0.0	-0.0	-0.0	-0.0	-0.0	-0.0	-0.0	-0.0	-0.0	-0.0	-0.0	-0.0
0.4970000000000002	-0.0	-0.0	-0.0	-2.36926817893982	34.860355377197266	-807.8826904296875	-0.0	-0.0	-0.0	-0.0	-0.0	-0.0	-0.0	-0.0	-0.0	-0.0	-0.0	-0.0
0.4975000000000002	-0.0	-0.0	-0.0	-1.8627318143844604	34.750179290771484	-806.9384155273438	-0.0	-0.0	-0.0	-0.0	-0.0	-0.0	-0.0	-0.0	-0.0	-0.0	-0.0	-0.0
0.4980000000000002	-0.0	-0.0	-0.0	-1.575262188911438	35.582576751708984	-805.250244140625	-0.0	-0.0	-0.0	-0.0	-0.0	-0.0	-0.0	-0.0	-0.0	-0.0	-0.0	-0.0
0.4985000000000002	-0.0	-0.0	-0.0	-1.2877994775772097	35.900146484375	-804.8970947265625	-0.0	-0.0	-0.0	-0.0	-0.0	-0.0	-0.0	-0.0	-0.0	-0.0	-0.0	-0.0
0.4990000000000002	-0.0	-0.0	-0.0	-0.8028945922851562	36.06667709350586	-805.9566650390625	-0.0	-0.0	-0.0	-0.0	-0.0	-0.0	-0.0	-0.0	-0.0	-0.0	-0.0	-0.0
0.4995000000000002	-0.0	-0.0	-0.0	-0.9427388906478882	36.17972183227539	-804.6203002929688	-0.0	-0.0	-0.0	-0.0	-0.0	-0.0	-0.0	-0.0	-0.0	-0.0	-0.0	-0.0
0.5000000000000002	-0.0	-0.0	-0.0	-0.8728941679000854	36.2253303527832	-804.065673828125	-0.0	-0.0	-0.0	-0.0	-0.0	-0.0	-0.0	-0.0	-0.0	-0.0	-0.0	-0.0
0.5005000000000002	-0.0	-0.0	-0.0	-0.2867828905582428	36.6195182800293	-803.76171875	-0.0	-0.0	-0.0	-0.0	-0.0	-0.0	-0.0	-0.0	-0.0	-0.0	-0.0	-0.0
0.5010000000000002	-0.0	-0.0	-0.0	-0.2927538752555847	35.65216064453125	-805.706298828125	-0.0	-0.0	-0.0	-0.0	-0.0	-0.0	-0.0	-0.0	-0.0	-0.0	-0.0	-0.0
0.5015000000000003	-0.0	-0.0	-0.0	0.17274110019207	35.925228118896484	-805.5584716796875	-0.0	-0.0	-0.0	-0.0	-0.0	-0.0	-0.0	-0.0	-0.0	-0.0	-0.0	-0.0
0.5020000000000002	-0.0	-0.0	-0.0	0.2918518781661987	35.924861907958984	-804.693603515625	-0.0	-0.0	-0.0	-0.0	-0.0	-0.0	-0.0	-0.0	-0.0	-0.0	-0.0	-0.0
0.5025000000000002	-0.0	-0.0	-0.0	1.0843510627746582	36.327545166015625	-803.4644775390625	-0.0	-0.0	-0.0	-0.0	-0.0	-0.0	-0.0	-0.0	-0.0	-0.0	-0.0	-0.0
0.5030000000000002	-0.0	-0.0	-0.0	1.619923710823059	36.21518707275391	-803.9495239257812	-0.0	-0.0	-0.0	-0.0	-0.0	-0.0	-0.0	-0.0	-0.0	-0.0	-0.0	-0.0
0.5035000000000003	-0.0	-0.0	-0.0	1.6244713068008425	35.99421691894531	-803.1477661132812	-0.0	-0.0	-0.0	-0.0	-0.0	-0.0	-0.0	-0.0	-0.0	-0.0	-0.0	-0.0
0.5040000000000002	-0.0	-0.0	-0.0	2.155843734741211	36.52107238769531	-803.705322265625	-0.0	-0.0	-0.0	-0.0	-0.0	-0.0	-0.0	-0.0	-0.0	-0.0	-0.0	-0.0
0.5045000000000002	-0.0	-0.0	-0.0	2.546494483947754	36.02721405029297	-803.6312255859375	-0.0	-0.0	-0.0	-0.0	-0.0	-0.0	-0.0	-0.0	-0.0	-0.0	-0.0	-0.0
0.5050000000000002	-0.0	-0.0	-0.0	2.565396308898926	36.52821731567383	-802.3516235351562	-0.0	-0.0	-0.0	-0.0	-0.0	-0.0	-0.0	-0.0	-0.0	-0.0	-0.0	-0.0
0.5055000000000003	-0.0	-0.0	-0.0	2.642332077026367	36.86603546142578	-801.7296752929688	-0.0	-0.0	-0.0	-0.0	-0.0	-0.0	-0.0	-0.0	-0.0	-0.0	-0.0	-0.0
0.5060000000000002	-0.0	-0.0	-0.0	3.211578369140625	36.91582107543945	-802.5601196289062	-0.0	-0.0	-0.0	-0.0	-0.0	-0.0	-0.0	-0.0	-0.0	-0.0	-0.0	-0.0
0.5065000000000002	-0.0	-0.0	-0.0	3.4813923835754395	37.14911651611328	-802.6332397460938	-0.0	-0.0	-0.0	-0.0	-0.0	-0.0	-0.0	-0.0	-0.0	-0.0	-0.0	-0.0
0.5070000000000002	-0.0	-0.0	-0.0	4.2292962074279785	37.2219352722168	-802.352783203125	-0.0	-0.0	-0.0	-0.0	-0.0	-0.0	-0.0	-0.0	-0.0	-0.0	-0.0	-0.0
0.5075000000000003	-0.0	-0.0	-0.0	4.049283027648926	37.65072250366211	-802.2094116210938	-0.0	-0.0	-0.0	-0.0	-0.0	-0.0	-0.0	-0.0	-0.0	-0.0	-0.0	-0.0
0.5080000000000002	-0.0	-0.0	-0.0	4.196103572845459	37.98759078979492	-802.2861328125	-0.0	-0.0	-0.0	-0.0	-0.0	-0.0	-0.0	-0.0	-0.0	-0.0	-0.0	-0.0
0.5085000000000002	-0.0	-0.0	-0.0	5.352630615234375	38.66460418701172	-801.4398193359375	-0.0	-0.0	-0.0	-0.0	-0.0	-0.0	-0.0	-0.0	-0.0	-0.0	-0.0	-0.0
0.5090000000000002	-0.0	-0.0	-0.0	5.460141658782959	38.95036697387695	-800.4476318359375	-0.0	-0.0	-0.0	-0.0	-0.0	-0.0	-0.0	-0.0	-0.0	-0.0	-0.0	-0.0
0.5095000000000003	-0.0	-0.0	-0.0	5.620262145996094	39.11041641235352	-800.658935546875	-0.0	-0.0	-0.0	-0.0	-0.0	-0.0	-0.0	-0.0	-0.0	-0.0	-0.0	-0.0
0.5100000000000002	-0.0	-0.0	-0.0	5.8345818519592285	39.555789947509766	-796.9863891601562	-0.0	-0.0	-0.0	-0.0	-0.0	-0.0	-0.0	-0.0	-0.0	-0.0	-0.0	-0.0
0.5105000000000002	-0.0	-0.0	-0.0	5.424129962921143	40.3393783569336	-795.5767822265625	-0.0	-0.0	-0.0	-0.0	-0.0	-0.0	-0.0	-0.0	-0.0	-0.0	-0.0	-0.0
0.5110000000000002	-0.0	-0.0	-0.0	5.602628231048584	40.58957290649414	-792.4659423828125	-0.0	-0.0	-0.0	-0.0	-0.0	-0.0	-0.0	-0.0	-0.0	-0.0	-0.0	-0.0
0.5115000000000003	-0.0	-0.0	-0.0	5.56619119644165	41.10667037963867	-792.3966674804688	-0.0	-0.0	-0.0	-0.0	-0.0	-0.0	-0.0	-0.0	-0.0	-0.0	-0.0	-0.0
0.5120000000000002	-0.0	-0.0	-0.0	5.618513107299805	41.21669387817383	-788.0137329101562	-0.0	-0.0	-0.0	-0.0	-0.0	-0.0	-0.0	-0.0	-0.0	-0.0	-0.0	-0.0
0.5125000000000002	-0.0	-0.0	-0.0	5.565891742706299	41.44564056396485	-785.47216796875	-0.0	-0.0	-0.0	-0.0	-0.0	-0.0	-0.0	-0.0	-0.0	-0.0	-0.0	-0.0
0.5130000000000002	-0.0	-0.0	-0.0	5.478979587554932	42.052207946777344	-787.1005859375	-0.0	-0.0	-0.0	-0.0	-0.0	-0.0	-0.0	-0.0	-0.0	-0.0	-0.0	-0.0
0.5135000000000003	-0.0	-0.0	-0.0	5.369910717010498	42.29679870605469	-787.0901489257812	-0.0	-0.0	-0.0	-0.0	-0.0	-0.0	-0.0	-0.0	-0.0	-0.0	-0.0	-0.0
0.5140000000000002	-0.0	-0.0	-0.0	5.136645317077637	42.71066665649414	-787.3062133789062	-0.0	-0.0	-0.0	-0.0	-0.0	-0.0	-0.0	-0.0	-0.0	-0.0	-0.0	-0.0
0.5145000000000002	-0.0	-0.0	-0.0	5.081483840942383	43.211124420166016	-786.7492065429688	-0.0	-0.0	-0.0	-0.0	-0.0	-0.0	-0.0	-0.0	-0.0	-0.0	-0.0	-0.0
0.5150000000000002	-0.0	-0.0	-0.0	4.961665153503418	43.05388259887695	-786.3656616210938	-0.0	-0.0	-0.0	-0.0	-0.0	-0.0	-0.0	-0.0	-0.0	-0.0	-0.0	-0.0
0.5155000000000003	-0.0	-0.0	-0.0	5.063797473907471	43.44467544555664	-790.1307983398438	-0.0	-0.0	-0.0	-0.0	-0.0	-0.0	-0.0	-0.0	-0.0	-0.0	-0.0	-0.0
0.5160000000000002	-0.0	-0.0	-0.0	5.701720714569092	43.67389678955078	-788.4985961914062	-0.0	-0.0	-0.0	-0.0	-0.0	-0.0	-0.0	-0.0	-0.0	-0.0	-0.0	-0.0
0.5165000000000002	-0.0	-0.0	-0.0	5.603405952453613	44.11955261230469	-789.7965698242188	-0.0	-0.0	-0.0	-0.0	-0.0	-0.0	-0.0	-0.0	-0.0	-0.0	-0.0	-0.0
0.5170000000000002	-0.0	-0.0	-0.0	5.70947265625	44.30303192138672	-790.7492065429688	-0.0	-0.0	-0.0	-0.0	-0.0	-0.0	-0.0	-0.0	-0.0	-0.0	-0.0	-0.0
0.5175000000000003	-0.0	-0.0	-0.0	6.607190608978272	44.39255142211914	-789.1140747070312	-0.0	-0.0	-0.0	-0.0	-0.0	-0.0	-0.0	-0.0	-0.0	-0.0	-0.0	-0.0
0.5180000000000002	-0.0	-0.0	-0.0	6.529017448425293	44.78268814086914	-791.6317138671875	-0.0	-0.0	-0.0	-0.0	-0.0	-0.0	-0.0	-0.0	-0.0	-0.0	-0.0	-0.0
0.5185000000000002	-0.0	-0.0	-0.0	7.103659629821777	44.61492919921875	-793.11083984375	-0.0	-0.0	-0.0	-0.0	-0.0	-0.0	-0.0	-0.0	-0.0	-0.0	-0.0	-0.0
0.5190000000000002	-0.0	-0.0	-0.0	7.840656280517578	45.44986724853516	-793.0850219726562	-0.0	-0.0	-0.0	-0.0	-0.0	-0.0	-0.0	-0.0	-0.0	-0.0	-0.0	-0.0
0.5195000000000003	-0.0	-0.0	-0.0	8.329483985900879	46.71126937866211	-793.056884765625	-0.0	-0.0	-0.0	-0.0	-0.0	-0.0	-0.0	-0.0	-0.0	-0.0	-0.0	-0.0
0.5200000000000002	-0.0	-0.0	-0.0	8.540502548217773	47.54826354980469	-793.0834350585938	-0.0	-0.0	-0.0	-0.0	-0.0	-0.0	-0.0	-0.0	-0.0	-0.0	-0.0	-0.0
0.5205000000000002	-0.0	-0.0	-0.0	8.564208984375	48.52815628051758	-793.659912109375	-0.0	-0.0	-0.0	-0.0	-0.0	-0.0	-0.0	-0.0	-0.0	-0.0	-0.0	-0.0
0.5210000000000002	-0.0	-0.0	-0.0	8.929022789001465	49.09461975097656	-789.4215087890625	-0.0	-0.0	-0.0	-0.0	-0.0	-0.0	-0.0	-0.0	-0.0	-0.0	-0.0	-0.0
0.5215000000000003	-0.0	-0.0	-0.0	8.880352020263672	49.85620880126953	-790.0326538085938	-0.0	-0.0	-0.0	-0.0	-0.0	-0.0	-0.0	-0.0	-0.0	-0.0	-0.0	-0.0
0.5220000000000002	-0.0	-0.0	-0.0	8.994159698486328	50.000858306884766	-787.139892578125	-0.0	-0.0	-0.0	-0.0	-0.0	-0.0	-0.0	-0.0	-0.0	-0.0	-0.0	-0.0
0.5225000000000002	-0.0	-0.0	-0.0	9.5294828414917	50.4548454284668	-784.9920043945312	-0.0	-0.0	-0.0	-0.0	-0.0	-0.0	-0.0	-0.0	-0.0	-0.0	-0.0	-0.0
0.5230000000000002	-0.0	-0.0	-0.0	9.13140106201172	51.18618392944336	-785.572509765625	-0.0	-0.0	-0.0	-0.0	-0.0	-0.0	-0.0	-0.0	-0.0	-0.0	-0.0	-0.0
0.5235000000000003	-0.0	-0.0	-0.0	9.85465145111084	51.08761215209961	-783.1887817382812	-0.0	-0.0	-0.0	-0.0	-0.0	-0.0	-0.0	-0.0	-0.0	-0.0	-0.0	-0.0
0.5240000000000002	-0.0	-0.0	-0.0	10.122514724731444	51.41242980957031	-783.4556274414062	-0.0	-0.0	-0.0	-0.0	-0.0	-0.0	-0.0	-0.0	-0.0	-0.0	-0.0	-0.0
0.5245000000000002	-0.0	-0.0	-0.0	10.448043823242188	51.38100814819336	-782.065185546875	-0.0	-0.0	-0.0	-0.0	-0.0	-0.0	-0.0	-0.0	-0.0	-0.0	-0.0	-0.0
0.5250000000000002	-0.0	-0.0	-0.0	10.511140823364258	51.5594482421875	-780.1744384765625	-0.0	-0.0	-0.0	-0.0	-0.0	-0.0	-0.0	-0.0	-0.0	-0.0	-0.0	-0.0
